<svg width="32" height="32" viewBox="0 0 32 32" fill="none" xmlns="http://www.w3.org/2000/svg">
<path fill-rule="evenodd" clip-rule="evenodd" d="M11.1577 19.9639C11.5544 20.819 12.0458 21.6137 12.6061 22.2784C13.653 23.5203 15.63 24.7938 17.5231 25.4458C18.35 25.6983 19.2835 25.8364 20.2407 25.8364C21.8842 25.8405 23.0998 25.6177 24.3081 25.0908C24.7713 24.8889 24.7699 24.8887 22.9493 24.8919C21.335 24.8947 20.8431 24.8066 20.2407 24.6188C19.0198 24.2382 18.1868 23.7024 16.8415 22.4321C15.4185 21.0885 15.2137 20.9457 14.0375 20.4756C13.6587 20.3243 13.2806 20.1364 12.9866 19.9639H11.1577Z" fill="url(#paint0_linear_375_16625)"/>
<path fill-rule="evenodd" clip-rule="evenodd" d="M10.2168 16.9622L10.7959 16.5692C10.7899 16.6717 10.7877 16.78 10.7877 16.8967C10.7877 17.3434 10.821 17.7422 10.8618 17.7829C10.9024 17.8236 11.0148 17.6972 11.1867 17.4848C11.3586 17.2724 11.603 16.9802 12.0874 16.5929C13.3761 15.5624 14.0699 14.959 14.7459 13.5737C15.0999 12.8478 15.4673 11.9163 15.5623 11.5034C15.7894 10.5161 15.916 10.4222 15.8249 11.3087C15.7849 11.6986 15.7174 12.829 15.6751 13.8206C15.6751 13.8206 15.6213 14.9716 15.5623 15.5624C15.5032 16.1531 15.3483 16.5578 15.1498 16.9802C14.5807 17.9323 13.9154 18.4604 13.4554 18.8255L13.4554 18.8256C13.3757 18.8888 13.3021 18.9472 13.2363 19.002C12.8319 19.2439 12.4765 19.462 12.4465 19.4865C12.3716 19.5478 12.6099 19.7434 12.9861 19.9642H11.1572C10.713 19.0067 10.3874 17.9733 10.2168 16.9622Z" fill="url(#paint1_linear_375_16625)"/>
<path fill-rule="evenodd" clip-rule="evenodd" d="M14.0339 4.86846C14.1196 3.601 14.2505 2.33825 14.3248 2.06224C14.3991 1.78634 14.4726 1.56055 14.4881 1.56055C14.5037 1.56055 14.5168 2.2917 14.5174 3.1852C14.518 4.3377 14.5988 5.28875 14.7952 6.45743C15.1993 8.86239 15.1237 9.76299 14.3975 11.1972C13.972 12.0374 13.5574 12.6042 12.559 13.711C11.0884 15.341 10.8198 15.7572 10.7908 16.6906L10.2343 17.0616C10.1358 16.5099 10.083 15.9638 10.0816 15.4392C10.0767 13.6658 10.598 12.3363 11.9794 10.5995C13.6449 8.50533 13.8215 8.01297 14.0339 4.86846Z" fill="url(#paint2_linear_375_16625)"/>
<path fill-rule="evenodd" clip-rule="evenodd" d="M8.002 26.4952C8.07231 27.3643 8.51539 28.2189 9.21429 28.8343C9.81902 29.3666 11.0058 29.9854 11.6392 30.0988C11.9832 30.1603 11.9366 30.1105 11.2799 29.7141C10.3934 29.1788 9.02489 27.9473 8.65919 27.3555C8.51776 27.1268 8.3 26.6903 8.1751 26.3858L7.94824 25.832L8.002 26.4952Z" fill="url(#paint3_linear_375_16625)"/>
<path fill-rule="evenodd" clip-rule="evenodd" d="M8.75207 20.6046C8.49168 22.0539 8.91796 23.7309 9.86142 24.9695C10.6858 26.0516 11.5162 26.6262 14.238 27.998C15.4405 28.6041 16.9429 29.4045 17.5764 29.7767C18.21 30.1489 18.7796 30.4454 18.8422 30.4357C19.0326 30.4061 16.5046 28.0287 15.5264 27.3174C15.0221 26.9506 14.2287 26.4195 13.7632 26.1368C11.8703 24.9876 10.7351 23.975 9.82544 22.6245C9.26119 21.7869 9.04886 21.2694 8.93544 20.4559L8.86698 19.965L8.75207 20.6046Z" fill="url(#paint4_linear_375_16625)"/>
<defs>
<linearGradient id="paint0_linear_375_16625" x1="24.4844" y1="25.0315" x2="12.0821" y2="19.8305" gradientUnits="userSpaceOnUse">
<stop stop-color="#1C3749" stop-opacity="0"/>
<stop offset="0.245599" stop-color="#9B6E3B"/>
<stop offset="0.653983" stop-color="#E7A65D"/>
<stop offset="1" stop-color="#FFD3A0"/>
</linearGradient>
<linearGradient id="paint1_linear_375_16625" x1="16.7493" y1="11.8294" x2="10.7481" y2="18.4973" gradientUnits="userSpaceOnUse">
<stop stop-color="#1C3749" stop-opacity="0"/>
<stop offset="0.33" stop-color="#9B6E3B"/>
<stop offset="0.649" stop-color="#E7A65D"/>
<stop offset="1" stop-color="#FFD3A0"/>
</linearGradient>
<linearGradient id="paint2_linear_375_16625" x1="15.9493" y1="3.56092" x2="8.88132" y2="17.2968" gradientUnits="userSpaceOnUse">
<stop offset="0.00822578" stop-color="#1C3749" stop-opacity="0"/>
<stop offset="0.237319" stop-color="#9B6E3B"/>
<stop offset="0.625975" stop-color="#E7A65D"/>
<stop offset="1" stop-color="#FFD3A0"/>
</linearGradient>
<linearGradient id="paint3_linear_375_16625" x1="8.3293" y1="27.2832" x2="11.4404" y2="26.7278" gradientUnits="userSpaceOnUse">
<stop stop-color="white"/>
<stop offset="1" stop-color="#1C3749" stop-opacity="0"/>
</linearGradient>
<linearGradient id="paint4_linear_375_16625" x1="8.95021" y1="22.5524" x2="18.9272" y2="23.6727" gradientUnits="userSpaceOnUse">
<stop stop-color="#538CB6"/>
<stop offset="1" stop-color="#1C3749" stop-opacity="0"/>
</linearGradient>
</defs>
</svg>
