<svg width="88" height="88" viewBox="0 0 88 88" fill="none" xmlns="http://www.w3.org/2000/svg">
<path d="M4.125 5.5H50.875V78.375H4.125V5.5Z" fill="#DEDEDE"/>
<path d="M11 13.75H19.25V22H11V13.75Z" fill="#6E7275"/>
<path d="M14.1499 16.9018L22.3985 8.6532L24.3428 10.5974L16.0943 18.8461L14.1499 16.9018Z" fill="#1E2B3B"/>
<path d="M26.125 13.75H28.875V16.5H26.125V13.75ZM31.625 13.75H45.375V16.5H31.625V13.75ZM26.125 19.25H45.375V22H26.125V19.25ZM11 30.25H19.25V38.5H11V30.25Z" fill="#6E7275"/>
<path d="M14.1487 33.3994L22.3973 25.1508L24.3416 27.095L16.0929 35.3436L14.1487 33.3994Z" fill="#1E2B3B"/>
<path d="M26.125 30.25H28.875V33H26.125V30.25ZM31.625 30.25H45.375V33H31.625V30.25ZM26.125 35.75H45.375V38.5H26.125V35.75ZM11 46.75H19.25V55H11V46.75Z" fill="#6E7275"/>
<path d="M28.875 46.75H26.125V49.5H28.875V46.75Z" fill="#6E7275"/>
<path d="M45.375 46.75H31.625V49.5H45.375V46.75Z" fill="#6E7275"/>
<path d="M45.375 52.25H26.125V55H45.375V52.25Z" fill="#6E7275"/>
<path d="M28.875 63.25H26.125V66H28.875V63.25Z" fill="#6E7275"/>
<path d="M45.375 63.25H31.625V66H45.375V63.25Z" fill="#6E7275"/>
<path d="M45.375 68.75H26.125V71.5H45.375V68.75Z" fill="#6E7275"/>
<path d="M14.1475 49.8972L22.3961 41.6486L24.3403 43.5928L16.0917 51.8414L14.1475 49.8972Z" fill="#1E2B3B"/>
<path d="M26.125 46.75H28.875V49.5H26.125V46.75ZM11 63.25H19.25V71.5H11V63.25Z" fill="#6E7275"/>
<path d="M14.1462 66.395L22.3949 58.1464L24.3391 60.0906L16.0905 68.3392L14.1462 66.395Z" fill="#1E2B3B"/>
<path d="M26.125 63.25H28.875V66H26.125V63.25ZM26.125 68.75H30.25V71.5H26.125V68.75Z" fill="#6E7275"/>
<path d="M61.875 9.625V30.25H56.375V34.375L66 42.625L75.625 34.375V30.25H70.125V9.625H61.875Z" fill="#364B60"/>
<path d="M48 48H84V84H48V48Z" fill="#DFB17D"/>
<path d="M60 48H72V60H60V48Z" fill="#F6F6F6"/>
<path d="M84 54H81C80.2044 54 79.4413 54.3161 78.8787 54.8787C78.3161 55.4413 78 56.2044 78 57V62.0763C77.9997 66.2994 76.3219 70.3495 73.3357 73.3357C70.3495 76.3219 66.2994 77.9997 62.0762 78H53C52.2044 78 51.4413 78.3161 50.8787 78.8787C50.3161 79.4413 50 80.2044 50 81V84H84V54Z" fill="#C1935F"/>
<path d="M74 74H78V78H74V74Z" fill="#F6F6F6"/>
</svg>
