<svg width="88" height="88" viewBox="0 0 88 88" fill="none" xmlns="http://www.w3.org/2000/svg">
<path d="M78.6958 44.6303V47.8114L77.1983 53.3175L78.6958 57.5545V67.6352L29.3969 69.3466L4.99951 67.6352V53.0189V38.4026L28.1425 29.8583H61.2056C62.8785 29.8583 64.2346 31.2143 64.2346 32.8872V40.1266H74.1921C74.5596 40.1267 74.9121 40.2727 75.172 40.5326L78.2895 43.6501C78.4183 43.7788 78.5205 43.9316 78.5902 44.0998C78.6599 44.268 78.6958 44.4483 78.6958 44.6303Z" fill="#364B60"/>
<path d="M5.49951 60.4194H78.6958V67.6353H5.49951V60.4194Z" fill="#6E7275"/>
<path d="M5.49951 31.0135V38.4026H13.1744C13.9432 38.4026 14.6806 38.0971 15.2244 37.5535L16.9638 35.8141C17.2331 35.5449 17.5527 35.3314 17.9044 35.1857C18.2562 35.04 18.6331 34.965 19.0139 34.9651H25.2435C26.8447 34.9651 28.1426 33.6672 28.1426 32.066V29.8583L6.65448 29.8583C6.34815 29.8583 6.05438 29.9801 5.83778 30.1967C5.62119 30.4133 5.49951 30.7071 5.49951 31.0135Z" fill="#1E2B3B"/>
<path d="M64.2352 32.8878C64.2352 31.2149 62.8791 29.8589 61.2062 29.8589H54.2775L52.5225 31.1424L51.0006 29.8589H41.0286V37.0957C41.0286 38.7699 42.3859 40.1272 44.0601 40.1272H64.2354L64.2352 32.8878Z" fill="#DEDEDE"/>
<path d="M50.9785 29.8583H54.2843V41.4101H50.9785V29.8583Z" fill="#364B60"/>
<path d="M32.143 41.7795H26.1767C25.9597 41.7795 25.7447 41.7368 25.5442 41.6537C25.3437 41.5707 25.1615 41.4489 25.008 41.2955C24.8545 41.142 24.7328 40.9598 24.6497 40.7593C24.5667 40.5587 24.5239 40.3438 24.5239 40.1268C24.5239 39.9097 24.5667 39.6948 24.6497 39.4943C24.7328 39.2938 24.8545 39.1116 25.008 38.9581C25.1615 38.8046 25.3437 38.6829 25.5442 38.5998C25.7447 38.5167 25.9597 38.474 26.1767 38.474H32.143C32.3601 38.474 32.575 38.5167 32.7755 38.5998C32.976 38.6829 33.1582 38.8046 33.3117 38.9581C33.4652 39.1116 33.5869 39.2938 33.67 39.4943C33.753 39.6948 33.7958 39.9097 33.7958 40.1268C33.7958 40.3438 33.753 40.5587 33.67 40.7593C33.5869 40.9598 33.4652 41.142 33.3117 41.2955C33.1582 41.4489 32.976 41.5707 32.7755 41.6537C32.575 41.7368 32.3601 41.7795 32.143 41.7795ZM32.143 47.5925H26.1767C25.7384 47.5925 25.318 47.4184 25.008 47.1084C24.6981 46.7984 24.5239 46.3781 24.5239 45.9397C24.5239 45.5014 24.6981 45.081 25.008 44.771C25.318 44.4611 25.7384 44.2869 26.1767 44.2869H32.143C32.5814 44.2869 33.0018 44.4611 33.3117 44.771C33.6217 45.081 33.7958 45.5014 33.7958 45.9397C33.7958 46.3781 33.6217 46.7984 33.3117 47.1084C33.0018 47.4184 32.5814 47.5925 32.143 47.5925Z" fill="#1E2B3B"/>
<path d="M71.288 57.6006H78.696V47.8247H71.288C70.9399 47.8247 70.6061 47.963 70.36 48.2091C70.1139 48.4552 69.9756 48.7891 69.9756 49.1371V56.2882C69.9756 56.6362 70.1139 56.9701 70.36 57.2162C70.6061 57.4623 70.9399 57.6006 71.288 57.6006Z" fill="#DFB17D"/>
<path d="M68.6261 84.0501C71.684 84.0501 74.1629 81.5712 74.1629 78.5133C74.1629 75.4555 71.684 72.9766 68.6261 72.9766C65.5682 72.9766 63.0894 75.4555 63.0894 78.5133C63.0894 81.5712 65.5682 84.0501 68.6261 84.0501Z" fill="#6E7275"/>
<path d="M54.0563 84.0501C57.1142 84.0501 59.5931 81.5712 59.5931 78.5133C59.5931 75.4555 57.1142 72.9766 54.0563 72.9766C50.9984 72.9766 48.5195 75.4555 48.5195 78.5133C48.5195 81.5712 50.9984 84.0501 54.0563 84.0501Z" fill="#6E7275"/>
<path d="M13.974 84.0501C17.0319 84.0501 19.5108 81.5712 19.5108 78.5133C19.5108 75.4555 17.0319 72.9766 13.974 72.9766C10.9162 72.9766 8.43726 75.4555 8.43726 78.5133C8.43726 81.5712 10.9162 84.0501 13.974 84.0501Z" fill="#6E7275"/>
<path d="M62.5531 69.0546L51.7447 55.078C51.3469 54.5547 50.8338 54.1301 50.2453 53.8373C49.6568 53.5446 49.0087 53.3914 48.3514 53.3899L8.30747 53.3898C6.75909 53.3898 5.49951 54.6493 5.49951 56.1975V67.6351C5.49951 68.0735 5.67364 68.4939 5.9836 68.8038C6.29355 69.1138 6.71394 69.2879 7.15228 69.2879C7.59063 69.2879 8.01102 69.1138 8.32097 68.8038C8.63092 68.4939 8.80506 68.0735 8.80506 67.6351V56.6953H19.4045V67.6351C19.4045 68.0735 19.5787 68.4939 19.8886 68.8038C20.1986 69.1138 20.619 69.2879 21.0573 69.2879C21.4956 69.2879 21.916 69.1138 22.226 68.8038C22.5359 68.4939 22.7101 68.0735 22.7101 67.6351V56.6953L6.28123 56.6954V67.6353C6.28123 68.0736 6.45536 68.494 6.76532 68.8039C7.07527 69.1139 7.49566 69.288 7.934 69.288C8.37234 69.288 8.79273 69.1139 9.10269 68.8039C9.41264 68.494 9.58677 68.0736 9.58677 67.6353V56.6954H20.1862V67.6353C20.1862 68.0736 20.3604 68.494 20.6703 68.8039C20.9803 69.1139 21.4007 69.288 21.839 69.288C22.2774 69.288 22.6978 69.1139 23.0077 68.8039C23.3177 68.494 23.4918 68.0736 23.4918 67.6353V56.6954H34.0913V67.6353C34.0913 68.0736 34.2654 68.494 34.5754 68.8039C34.8853 69.1139 35.3057 69.288 35.744 69.288C36.1824 69.288 36.6028 69.1139 36.9127 68.8039C37.2227 68.494 37.3968 68.0736 37.3968 67.6353V56.6954H48.3505C48.647 56.6954 48.9305 56.8368 49.1087 57.0739L49.1222 57.0914L59.9373 71.0764C60.0917 71.2765 60.29 71.4385 60.5169 71.5498C60.7439 71.6611 60.9933 71.7188 61.2461 71.7184C61.599 71.7184 61.955 71.6057 62.256 71.3729C62.4278 71.2403 62.5718 71.0751 62.6797 70.8868C62.7877 70.6984 62.8574 70.4907 62.885 70.2754C62.9126 70.0601 62.8975 69.8414 62.8406 69.632C62.7836 69.4225 62.6859 69.2263 62.5531 69.0546Z" fill="#DEDEDE"/>
<path d="M88 53.8005C88 53.3621 87.8258 52.9417 87.5159 52.6318C87.2059 52.3218 86.7855 52.1477 86.3472 52.1477C85.9088 52.1477 85.4885 52.3218 85.1785 52.6318C84.8686 52.9417 84.6944 53.3621 84.6944 53.8005V67.6353H4.99951V80.7771C4.99951 81.0834 5.1212 81.3772 5.3378 81.5938C5.55439 81.8104 5.84817 81.932 6.15448 81.932H13.716C13.9099 81.932 14.1007 81.8832 14.2708 81.7901C14.4408 81.697 14.5847 81.5625 14.6892 81.3992L18.6279 75.2371C18.7324 75.0737 18.8763 74.9393 19.0463 74.8462C19.2164 74.753 19.4072 74.7042 19.6011 74.7042H20.305C20.699 74.7042 21.0659 74.9051 21.2781 75.2371L24.8763 80.8661C25.0852 81.1929 25.373 81.4618 25.7132 81.6481C26.0533 81.8344 26.4349 81.932 26.8228 81.932H41.265C41.6528 81.932 42.0344 81.8344 42.3746 81.6481C42.7148 81.4618 43.0026 81.1928 43.2115 80.8661L46.8097 75.2371C46.9141 75.0737 47.058 74.9393 47.2281 74.8462C47.3981 74.753 47.5889 74.7042 47.7828 74.7042H75.015C75.4091 74.7042 75.776 74.9051 75.9882 75.2371L79.9269 81.3992C80.0314 81.5625 80.1752 81.697 80.3453 81.7901C80.5154 81.8832 80.7062 81.932 80.9001 81.932H86.8446C87.1509 81.932 87.4446 81.8104 87.6612 81.5938C87.8778 81.3772 87.9995 81.0834 87.9995 80.7771L88 53.8005Z" fill="#1E2B3B"/>
<path d="M4.125 9.625H28.875V83.875H4.125V9.625Z" fill="#DFB17D"/>
<path d="M12.375 34.375H20.625V42.625H12.375V34.375ZM12.375 9.625H20.625V17.875H12.375V9.625Z" fill="#F6F6F6"/>
<path d="M28.875 38.5H26.8125C26.2655 38.5 25.7409 38.7173 25.3541 39.1041C24.9673 39.4909 24.75 40.0155 24.75 40.5625V44.0524C24.7498 46.9558 23.5963 49.7403 21.5433 51.7933C19.4903 53.8463 16.7058 54.9998 13.8024 55H7.5625C7.01549 55 6.49089 55.2173 6.10409 55.6041C5.7173 55.9909 5.5 56.5155 5.5 57.0625V59.125H28.875V38.5ZM28.875 13.75H26.8125C26.2655 13.75 25.7409 13.9673 25.3541 14.3541C24.9673 14.7409 24.75 15.2655 24.75 15.8125V19.3024C24.7498 22.2058 23.5963 24.9903 21.5433 27.0433C19.4903 29.0963 16.7058 30.2498 13.8024 30.25H7.5625C7.01549 30.25 6.49089 30.4673 6.10409 30.8541C5.7173 31.2409 5.5 31.7655 5.5 32.3125V34.375H28.875V13.75Z" fill="#C1935F"/>
<path d="M22 52.25H24.75V55H22V52.25Z" fill="#F6F6F6"/>
<path d="M12.375 59.125H20.625V67.375H12.375V59.125Z" fill="#F6F6F6"/>
<path d="M28.875 63.25H26.8125C26.2655 63.25 25.7409 63.4673 25.3541 63.8541C24.9673 64.2409 24.75 64.7655 24.75 65.3125V68.8024C24.7498 71.7058 23.5963 74.4903 21.5433 76.5433C19.4903 78.5963 16.7058 79.7498 13.8024 79.75H7.5625C7.01549 79.75 6.49089 79.9673 6.10409 80.3541C5.7173 80.7409 5.5 81.2655 5.5 81.8125V83.875H28.875V63.25Z" fill="#C1935F"/>
<path d="M22 77H24.75V79.75H22V77ZM22 27.5H24.75V30.25H22V27.5Z" fill="#F6F6F6"/>
</svg>
