<svg width="88" height="88" viewBox="0 0 88 88" fill="none" xmlns="http://www.w3.org/2000/svg">
<path d="M20.625 2.75H23.375V11H20.625V2.75ZM26.125 4.125H28.875V9.625H26.125V4.125Z" fill="#DEDEDE"/>
<path d="M22 15.125H30.25V44H22V15.125Z" fill="#6E7275"/>
<path d="M77 33V30.25H74.25V16.5H71.5V30.25H68.75V33H71.5V35.75C71.5 36.1147 71.6449 36.4644 71.9027 36.7223C72.1606 36.9801 72.5103 37.125 72.875 37.125C73.1469 37.125 73.4128 37.2056 73.6389 37.3567C73.865 37.5078 74.0413 37.7226 74.1453 37.9738C74.2494 38.2251 74.2766 38.5015 74.2236 38.7682C74.1705 39.035 74.0396 39.28 73.8473 39.4723C73.655 39.6646 73.41 39.7955 73.1433 39.8486C72.8765 39.9016 72.6001 39.8744 72.3488 39.7703C72.0976 39.6663 71.8828 39.49 71.7317 39.2639C71.5806 39.0378 71.5 38.7719 71.5 38.5H68.75C68.75 39.2562 68.958 39.9979 69.3511 40.6439C69.7442 41.29 70.3073 41.8155 70.9789 42.1631C71.6505 42.5107 72.4048 42.667 73.1592 42.6149C73.9136 42.5628 74.6392 42.3043 75.2567 41.8677C75.8741 41.4311 76.3597 40.8331 76.6602 40.1392C76.9608 39.4452 77.0648 38.682 76.9609 37.9329C76.857 37.1839 76.5491 36.4778 76.071 35.8919C75.593 35.3059 74.963 34.8627 74.25 34.6106V33H77Z" fill="#364B60"/>
<path d="M77 17.875H28.875V15.125H74.25L72.1875 12.375H28.875V9.625H72.875C73.0885 9.625 73.299 9.6747 73.4899 9.77016C73.6808 9.86563 73.8469 10.0042 73.975 10.175L78.1 15.675C78.2532 15.8793 78.3465 16.1222 78.3694 16.3765C78.3924 16.6308 78.344 16.8865 78.2298 17.1149C78.1156 17.3433 77.9401 17.5354 77.7229 17.6696C77.5057 17.8039 77.2554 17.875 77 17.875Z" fill="#6E7275"/>
<path d="M21 10.5H28.875V16H21V10.5ZM19.25 8.25L16.5 5.5H12.375V22H16.5L19.25 19.25V8.25Z" fill="#6E7275"/>
<path d="M22 19.25H30.25V22H22V19.25Z" fill="#6E7275"/>
<path d="M20.625 2.75H23.375V5.5H20.625V2.75Z" fill="#DFB17D"/>
<path d="M12.375 34.375H28.875V52.25H12.375V34.375Z" fill="#DFB17D"/>
<path d="M16.5 38.5H19.25V45.375H16.5V38.5ZM22 38.5H24.75V45.375H22V38.5Z" fill="#C1935F"/>
<path d="M28.875 34.375H45.375V52.25H28.875V34.375Z" fill="#364B60"/>
<path d="M33 38.5H35.75V45.375H33V38.5ZM38.5 38.5H41.25V45.375H38.5V38.5Z" fill="#1E2B3B"/>
<path d="M78.375 46.75H81.125V53.625H78.375V46.75ZM72.875 48.125H75.625V53.625H72.875V48.125Z" fill="#DEDEDE"/>
<path d="M78.375 46.75H81.125V49.5H78.375V46.75Z" fill="#DFB17D"/>
<path d="M83.875 52.25V59.8142C83.8738 62.197 83.3778 64.5536 82.4183 66.7347C81.4588 68.9158 80.0568 70.8739 78.3011 72.4848L67.375 82.5H49.5V57.75H66V52.25H83.875Z" fill="#364B60"/>
<path d="M80.5352 70C79.9173 70.8911 79.2602 71.748 78.5 72.5L67.3333 83.88H50V70H80.5352Z" fill="#1E2B3B"/>
<path d="M24.75 49.5H52.25V68.75H24.75V49.5Z" fill="#C1935F"/>
<path d="M8.25 49.5H24.75V68.75H8.25V49.5Z" fill="#1E2B3B"/>
<path d="M28.875 53.625H31.625V60.5H28.875V53.625ZM34.375 53.625H37.125V60.5H34.375V53.625Z" fill="#DFB17D"/>
<path d="M12.375 53.625H15.125V60.5H12.375V53.625ZM17.875 53.625H20.625V60.5H17.875V53.625Z" fill="#364B60"/>
<path d="M39.875 53.625H42.625V60.5H39.875V53.625ZM45.375 53.625H48.125V60.5H45.375V53.625Z" fill="#DFB17D"/>
<path d="M77 56.375H79.75V59.125H77V56.375Z" fill="#DEDEDE"/>
<path d="M4.125 64.625H60.5V83.875H4.125V64.625Z" fill="#DEDEDE"/>
<rect x="20.5" y="9.5" width="9" height="8.5" stroke="#DEDEDE" stroke-width="3"/>
</svg>
