<svg width="88" height="88" viewBox="0 0 88 88" fill="none" xmlns="http://www.w3.org/2000/svg">
<path d="M78.375 13.75V83.875H6.875V13.75L42.625 5.5L78.375 13.75Z" fill="#364B60"/>
<path d="M17.875 28.875H67.375V83.875H17.875V28.875Z" fill="#DEDEDE"/>
<path d="M78.375 13.75V19.7089L42.625 11.0791L6.875 19.7089V13.75L42.625 5.5L78.375 13.75Z" fill="#1E2B3B"/>
<path d="M39.875 22H45.375C46.8938 22 48.125 20.7688 48.125 19.25C48.125 17.7312 46.8938 16.5 45.375 16.5H39.875C38.3562 16.5 37.125 17.7312 37.125 19.25C37.125 20.7688 38.3562 22 39.875 22Z" fill="#DEDEDE"/>
<path d="M82.5 12.375L42.625 2.75L2.75 12.375V17.875L42.625 8.25L82.5 17.875V12.375Z" fill="#DEDEDE"/>
<path d="M17.875 28.875H67.375V52.25H17.875V28.875Z" fill="#DEDEDE"/>
<path d="M17.875 33H67.375V35.75H17.875V33ZM17.875 38.5H67.375V41.25H17.875V38.5ZM17.875 44H67.375V46.75H17.875V44ZM17.875 49.5H67.375V52.25H17.875V49.5Z" fill="#6E7275"/>
<path d="M52.25 83.875V61.875H27.5V39.875H2.75V83.875H52.25Z" fill="#DFB17D"/>
<path d="M35.75 61.875H44V70.125H35.75V61.875Z" fill="#F6F6F6"/>
<path d="M52.25 63.25H50.1875C49.6405 63.25 49.1159 63.4673 48.7291 63.8541C48.3423 64.2409 48.125 64.7655 48.125 65.3125V68.8024C48.1248 71.7058 46.9713 74.4903 44.9183 76.5433C42.8653 78.5963 40.0808 79.7498 37.1774 79.75H30.9375C30.3905 79.75 29.8659 79.9673 29.4791 80.3541C29.0923 80.7409 28.875 81.2655 28.875 81.8125V83.875H52.25V63.25Z" fill="#C1935F"/>
<path d="M45.375 77H48.125V79.75H45.375V77Z" fill="#F6F6F6"/>
<path d="M11 61.875H19.25V70.125H11V61.875Z" fill="#F6F6F6"/>
<path d="M27.5 63.25H25.4375C24.8905 63.25 24.3659 63.4673 23.9791 63.8541C23.5923 64.2409 23.375 64.7655 23.375 65.3125V68.8024C23.3748 71.7058 22.2213 74.4903 20.1683 76.5433C18.1153 78.5963 15.3308 79.7498 12.4274 79.75H6.1875C5.64049 79.75 5.11589 79.9673 4.72909 80.3541C4.3423 80.7409 4.125 81.2655 4.125 81.8125V83.875H27.5V63.25Z" fill="#C1935F"/>
<path d="M20.625 77H23.375V79.75H20.625V77Z" fill="#F6F6F6"/>
<path d="M11 39.875H19.25V48.125H11V39.875Z" fill="#F6F6F6"/>
<path d="M27.5 41.25H25.4375C24.8905 41.25 24.3659 41.4673 23.9791 41.8541C23.5923 42.2409 23.375 42.7655 23.375 43.3125V46.8024C23.3748 49.7058 22.2213 52.4903 20.1683 54.5433C18.1153 56.5963 15.3308 57.7498 12.4274 57.75H6.1875C5.64049 57.75 5.11589 57.9673 4.72909 58.3541C4.3423 58.7409 4.125 59.2655 4.125 59.8125V61.875H27.5V41.25Z" fill="#C1935F"/>
<path d="M20.625 55H23.375V57.75H20.625V55Z" fill="#F6F6F6"/>
</svg>
