<svg width="63" height="32" viewBox="0 0 63 32" fill="none" xmlns="http://www.w3.org/2000/svg">
<path fill-rule="evenodd" clip-rule="evenodd" d="M4.14771 20.393C4.5873 21.3406 5.13181 22.2213 5.75272 22.9577C6.91276 24.3339 9.10349 25.7451 11.2013 26.4676C12.1176 26.7474 13.152 26.9004 14.2127 26.9004C16.0338 26.905 17.3808 26.6581 18.7198 26.0743C19.2331 25.8505 19.2315 25.8502 17.2141 25.8538C15.4253 25.8569 14.8801 25.7593 14.2127 25.5512C12.8598 25.1295 11.9367 24.5357 10.4459 23.1281C8.86912 21.6393 8.64222 21.481 7.33881 20.9601C6.91908 20.7924 6.50005 20.5842 6.17433 20.393H4.14771Z" fill="url(#paint0_linear_348_24)"/>
<path fill-rule="evenodd" clip-rule="evenodd" d="M3.10571 17.0665L3.74747 16.631C3.74081 16.7445 3.7383 16.8645 3.7383 16.9939C3.7383 17.4889 3.77522 17.9308 3.82039 17.9758C3.86543 18.021 3.98999 17.8808 4.18045 17.6455C4.37091 17.4101 4.64182 17.0864 5.17853 16.6572C6.60659 15.5153 7.37541 14.8467 8.12447 13.3116C8.51673 12.5073 8.9238 11.475 9.02906 11.0175C9.28071 9.92348 9.42107 9.81939 9.32012 10.8018C9.27574 11.2338 9.20098 12.4864 9.1541 13.5852C9.1541 13.5852 9.09453 14.8606 9.02906 15.5153C8.9636 16.1699 8.79195 16.6183 8.57199 17.0864C7.94141 18.1414 7.20417 18.7266 6.69443 19.1312L6.69441 19.1312C6.6061 19.2013 6.52461 19.266 6.4517 19.3268C6.00352 19.5948 5.60969 19.8365 5.57643 19.8636C5.49345 19.9316 5.75743 20.1483 6.17425 20.3929H4.14774C3.65549 19.3319 3.2948 18.1869 3.10571 17.0665Z" fill="url(#paint1_linear_348_24)"/>
<path fill-rule="evenodd" clip-rule="evenodd" d="M7.33522 3.66553C7.43015 2.26104 7.57522 0.861784 7.65757 0.555931C7.73993 0.250208 7.82137 0 7.83852 0C7.85581 0 7.87034 0.810197 7.87099 1.80029C7.87165 3.07739 7.96121 4.13125 8.17881 5.42628C8.62659 8.09124 8.5428 9.08919 7.7381 10.6784C7.26662 11.6095 6.80718 12.2375 5.70082 13.464C4.07126 15.2703 3.77366 15.7314 3.74152 16.7657L3.12489 17.1768C3.01573 16.5655 2.95715 15.9604 2.9556 15.3791C2.95024 13.4139 3.5279 11.9407 5.05861 10.0162C6.9042 7.69557 7.09981 7.14998 7.33522 3.66553Z" fill="url(#paint2_linear_348_24)"/>
<path fill-rule="evenodd" clip-rule="evenodd" d="M0.650636 27.6301C0.72854 28.5931 1.21953 29.5401 1.99398 30.222C2.66409 30.8118 3.97915 31.4975 4.68107 31.6232C5.06221 31.6914 5.01062 31.6361 4.28291 31.1969C3.30054 30.6038 1.7841 29.2391 1.37887 28.5834C1.22215 28.3299 0.980846 27.8462 0.842453 27.5088L0.591064 26.8951L0.650636 27.6301Z" fill="white"/>
<path fill-rule="evenodd" clip-rule="evenodd" d="M0.650636 27.6301C0.72854 28.5931 1.21953 29.5401 1.99398 30.222C2.66409 30.8118 3.97915 31.4975 4.68107 31.6232C5.06221 31.6914 5.01062 31.6361 4.28291 31.1969C3.30054 30.6038 1.7841 29.2391 1.37887 28.5834C1.22215 28.3299 0.980846 27.8462 0.842453 27.5088L0.591064 26.8951L0.650636 27.6301Z" fill="url(#paint3_linear_348_24)"/>
<path fill-rule="evenodd" clip-rule="evenodd" d="M1.48207 21.1031C1.19352 22.709 1.66588 24.5673 2.71135 25.9398C3.62482 27.1389 4.54496 27.7756 7.56106 29.2957C8.89359 29.9673 10.5584 30.8542 11.2604 31.2667C11.9625 31.6791 12.5936 32.0077 12.6631 31.9969C12.8741 31.9641 10.0727 29.3297 8.9887 28.5415C8.42994 28.1351 7.55078 27.5465 7.03494 27.2333C4.93744 25.9598 3.67946 24.8378 2.67147 23.3413C2.04622 22.4132 1.81094 21.8397 1.68526 20.9383L1.6094 20.3943L1.48207 21.1031Z" fill="url(#paint4_linear_348_24)"/>
<path d="M31.6764 9.89162H31.403C31.3367 9.70106 31.229 9.48564 31.0798 9.24536C30.939 9.00509 30.7484 8.78138 30.5081 8.57425C30.2762 8.35883 29.9903 8.18069 29.6506 8.03984C29.3192 7.89899 28.9256 7.82857 28.4699 7.82857C28.064 7.82857 27.7035 7.89071 27.3887 8.01499C27.0739 8.13927 26.8087 8.31326 26.5933 8.53696C26.3862 8.76067 26.2288 9.0258 26.121 9.33236C26.0133 9.63892 25.9595 9.97862 25.9595 10.3515C25.9595 10.948 26.1252 11.5197 26.4566 12.0665C26.7963 12.6051 27.2189 13.1395 27.7243 13.6697C28.2297 14.2 28.7765 14.7303 29.3648 15.2605C29.953 15.7908 30.4999 16.3418 31.0053 16.9135C31.5107 17.4851 31.9291 18.0858 32.2605 18.7155C32.6002 19.3369 32.77 20.008 32.77 20.7289C32.77 21.2674 32.6748 21.8101 32.4842 22.3569C32.3019 22.8955 32.0161 23.3802 31.6267 23.811C31.2373 24.2419 30.736 24.594 30.1229 24.8674C29.5098 25.1325 28.7806 25.2651 27.9355 25.2651C27.4633 25.2651 27.0117 25.2195 26.5809 25.1284C26.1583 25.0455 25.7648 24.942 25.4002 24.8177C25.0439 24.6851 24.7208 24.5443 24.4308 24.3951C24.1491 24.246 23.9171 24.1093 23.7349 23.985L24.0207 21.2384H24.3314C24.4225 21.6278 24.5717 22.0007 24.7788 22.3569C24.986 22.7049 25.2387 23.0156 25.5369 23.289C25.8435 23.5542 26.1915 23.7696 26.5809 23.9353C26.9703 24.0927 27.397 24.1714 27.861 24.1714C28.2835 24.1714 28.6605 24.1093 28.9919 23.985C29.3316 23.8524 29.6216 23.6743 29.8619 23.4506C30.1022 23.2186 30.2844 22.9452 30.4087 22.6304C30.5413 22.3155 30.6076 21.9717 30.6076 21.5988C30.6076 21.0769 30.5123 20.5963 30.3217 20.1572C30.1312 19.7098 29.8785 19.2872 29.5636 18.8895C29.2571 18.4918 28.9049 18.1066 28.5072 17.7337C28.1178 17.3609 27.716 16.988 27.3017 16.6152C26.8874 16.2341 26.4815 15.8446 26.0838 15.447C25.6944 15.0493 25.3422 14.6267 25.0274 14.1793C24.7208 13.7236 24.4723 13.2389 24.2817 12.7252C24.0911 12.2032 23.9959 11.6315 23.9959 11.0101C23.9959 10.3556 24.1201 9.76734 24.3687 9.24536C24.6255 8.7151 24.9611 8.26355 25.3754 7.89071C25.7979 7.51787 26.2743 7.23202 26.8046 7.03317C27.3349 6.83432 27.8817 6.7349 28.4451 6.7349C28.8594 6.7349 29.2405 6.76804 29.5885 6.83432C29.9365 6.90061 30.2472 6.97932 30.5206 7.07046C30.8023 7.1616 31.0467 7.25273 31.2538 7.34387C31.461 7.43501 31.6308 7.50958 31.7634 7.56758L31.6764 9.89162Z" fill="white"/>
<path d="M38.4497 20.0205C38.4497 20.7247 38.4579 21.342 38.4745 21.8722C38.4994 22.3942 38.5242 22.8458 38.5491 23.2269C38.5822 23.608 38.6195 23.927 38.6609 24.1839C38.7106 24.4407 38.7604 24.6561 38.8101 24.8301V24.8798H35.8273V24.8301C35.8771 24.6561 35.9226 24.4407 35.964 24.1839C36.0138 23.927 36.0552 23.608 36.0883 23.2269C36.1215 22.8458 36.1463 22.3942 36.1629 21.8722C36.1795 21.342 36.1878 20.7247 36.1878 20.0205V11.9298C36.1878 11.2256 36.1795 10.6124 36.1629 10.0905C36.1463 9.56021 36.1215 9.10451 36.0883 8.72338C36.0552 8.33397 36.0138 8.01084 35.964 7.754C35.9226 7.49715 35.8771 7.28173 35.8273 7.10774V7.05803C36.515 7.05803 37.211 7.05803 37.9153 7.05803C38.6195 7.04974 39.303 7.0456 39.9659 7.0456C40.6287 7.03732 41.2584 7.02903 41.8549 7.02074C42.4515 7.00417 42.99 6.99175 43.4706 6.98346C43.9511 6.96689 44.3571 6.95032 44.6885 6.93375C45.0199 6.90889 45.2561 6.88404 45.3969 6.85918L44.788 8.51211C44.5145 8.43754 44.1956 8.37126 43.831 8.31326C43.5162 8.26355 43.1309 8.21798 42.6752 8.17655C42.2278 8.12684 41.7099 8.10198 41.1217 8.10198C40.9228 8.10198 40.6743 8.11027 40.376 8.12684C40.0777 8.13512 39.7836 8.14755 39.4936 8.16412C39.1622 8.18069 38.8142 8.19726 38.4497 8.21384V14.49C39.303 14.4817 40.086 14.4569 40.7986 14.4154C41.5111 14.374 42.1242 14.3326 42.6379 14.2911C43.2344 14.2414 43.773 14.1834 44.2535 14.1172L43.8807 15.9192C43.2593 15.8446 42.6296 15.7742 41.9916 15.7079C41.4448 15.6499 40.8566 15.6002 40.2269 15.5588C39.5972 15.5091 39.0048 15.4842 38.4497 15.4842V20.0205Z" fill="white"/>
<path d="M62.1002 9.7922L61.9884 9.84191C61.3421 9.24536 60.5633 8.76895 59.6519 8.41268C58.7488 8.05641 57.7545 7.87828 56.6692 7.87828C55.6252 7.87828 54.6682 8.04399 53.7983 8.3754C52.9283 8.69853 52.1785 9.17079 51.5488 9.7922C50.9274 10.4136 50.4427 11.1759 50.0947 12.079C49.7467 12.9821 49.5727 14.0094 49.5727 15.1611C49.5727 16.4288 49.7385 17.6136 50.0699 18.7155C50.4013 19.8092 50.8943 20.7579 51.5488 21.5615C52.2033 22.3652 53.0195 22.9991 53.9971 23.463C54.9831 23.9187 56.1306 24.1466 57.4397 24.1466C57.912 24.1466 58.3842 24.0969 58.8565 23.9974C59.3288 23.898 59.7803 23.753 60.2111 23.5625C60.6503 23.3636 61.0604 23.1275 61.4415 22.8541C61.8309 22.5724 62.1831 22.2534 62.4979 21.8971L62.6346 21.9841L61.6404 24.5194C61.019 24.7597 60.3313 24.942 59.5773 25.0662C58.8316 25.1988 58.0777 25.2651 57.3154 25.2651C55.7826 25.2651 54.3783 25.0455 53.1023 24.6064C51.8347 24.159 50.741 23.5293 49.8213 22.7174C48.9099 21.9054 48.1974 20.9319 47.6837 19.7968C47.1783 18.6534 46.9256 17.3857 46.9256 15.9938C46.9256 15.2067 47.025 14.432 47.2238 13.6697C47.431 12.9075 47.7293 12.1825 48.1187 11.4948C48.5081 10.8072 48.9886 10.1775 49.5603 9.60578C50.132 9.0258 50.7824 8.52454 51.5115 8.10198C52.2489 7.67943 53.0567 7.35216 53.935 7.12017C54.8215 6.87989 55.7785 6.75976 56.8059 6.75976C58.4049 6.75976 59.888 7.00417 61.2551 7.49301L62.1002 9.7922Z" fill="white"/>
<defs>
<linearGradient id="paint0_linear_348_24" x1="18.9152" y1="26.0085" x2="5.17203" y2="20.2452" gradientUnits="userSpaceOnUse">
<stop stop-color="#1C3749"/>
<stop offset="0.245599" stop-color="#9B6E3B"/>
<stop offset="0.653983" stop-color="#E7A65D"/>
<stop offset="1" stop-color="#FFD3A0"/>
</linearGradient>
<linearGradient id="paint1_linear_348_24" x1="10.3444" y1="11.3787" x2="3.69451" y2="18.7675" gradientUnits="userSpaceOnUse">
<stop stop-color="#1C3749"/>
<stop offset="0.33" stop-color="#9B6E3B"/>
<stop offset="0.649" stop-color="#E7A65D"/>
<stop offset="1" stop-color="#FFD3A0"/>
</linearGradient>
<linearGradient id="paint2_linear_348_24" x1="9.45769" y1="2.21663" x2="1.62559" y2="17.4375" gradientUnits="userSpaceOnUse">
<stop offset="0.00822578" stop-color="#1C3749"/>
<stop offset="0.237319" stop-color="#9B6E3B"/>
<stop offset="0.625975" stop-color="#E7A65D"/>
<stop offset="1" stop-color="#FFD3A0"/>
</linearGradient>
<linearGradient id="paint3_linear_348_24" x1="1.01332" y1="28.5033" x2="4.46076" y2="27.8878" gradientUnits="userSpaceOnUse">
<stop stop-color="white"/>
<stop offset="1" stop-color="#1C3749"/>
</linearGradient>
<linearGradient id="paint4_linear_348_24" x1="1.70163" y1="23.2614" x2="10.8211" y2="24.126" gradientUnits="userSpaceOnUse">
<stop stop-color="#538CB6"/>
<stop offset="1" stop-color="#1C3749"/>
</linearGradient>
</defs>
</svg>
