<svg width="88" height="88" viewBox="0 0 88 88" fill="none" xmlns="http://www.w3.org/2000/svg">
<path d="M60.094 58.4375L58.1562 37.1228H75.3749L77.3126 58.4375H60.094Z" fill="#DEDEDE"/>
<path d="M26.125 75.625H83.875V59.125C83.875 58.031 83.4404 56.9818 82.6668 56.2082C81.8932 55.4346 80.844 55 79.75 55H61.875V39.875H79.75V34.375L55 31.625V56.375H26.125V75.625Z" fill="#364B60"/>
<path d="M49.5 75.625C49.5 71.9783 50.9487 68.4809 53.5273 65.9023C56.1059 63.3237 59.6033 61.875 63.25 61.875C66.8967 61.875 70.3941 63.3237 72.9727 65.9023C75.5513 68.4809 77 71.9783 77 75.625H49.5Z" fill="#1E2B3B"/>
<path d="M63.25 83.875C67.8063 83.875 71.5 80.1813 71.5 75.625C71.5 71.0687 67.8063 67.375 63.25 67.375C58.6937 67.375 55 71.0687 55 75.625C55 80.1813 58.6937 83.875 63.25 83.875Z" fill="#6E7275"/>
<path d="M63.25 78.375C64.7688 78.375 66 77.1438 66 75.625C66 74.1062 64.7688 72.875 63.25 72.875C61.7312 72.875 60.5 74.1062 60.5 75.625C60.5 77.1438 61.7312 78.375 63.25 78.375Z" fill="#DEDEDE"/>
<path d="M20.625 20.625H55V56.375H20.625V20.625Z" fill="#DEDEDE"/>
<path d="M41.25 56.375H44V75.625H41.25V56.375Z" fill="#1E2B3B"/>
<path d="M78.375 55V61.875H83.875V59.125C83.875 58.031 83.4404 56.9818 82.6668 56.2082C81.8932 55.4346 80.844 55 79.75 55H78.375Z" fill="#DFB17D"/>
<path d="M61.875 55H64.625V61.875H61.875V55Z" fill="#1E2B3B"/>
<path d="M46.75 24.75H49.5V52.25H46.75V24.75ZM41.25 24.75H44V52.25H41.25V24.75ZM35.75 24.75H38.5V52.25H35.75V24.75Z" fill="#6E7275"/>
<path d="M46.75 24.75H49.5V52.25H46.75V24.75ZM41.25 24.75H44V52.25H41.25V24.75ZM35.75 24.75H38.5V52.25H35.75V24.75Z" fill="#6E7275"/>
<path d="M79.75 66H83.875V68.75H79.75V66Z" fill="#1E2B3B"/>
<path d="M4.125 9.625H28.875V83.875H4.125V9.625Z" fill="#DFB17D"/>
<path d="M12.375 34.375H20.625V42.625H12.375V34.375ZM12.375 9.625H20.625V17.875H12.375V9.625Z" fill="#F6F6F6"/>
<path d="M28.875 38.5H26.8125C26.2655 38.5 25.7409 38.7173 25.3541 39.1041C24.9673 39.4909 24.75 40.0155 24.75 40.5625V44.0524C24.7498 46.9558 23.5963 49.7403 21.5433 51.7933C19.4903 53.8463 16.7058 54.9998 13.8024 55H7.5625C7.01549 55 6.49089 55.2173 6.10409 55.6041C5.7173 55.9909 5.5 56.5155 5.5 57.0625V59.125H28.875V38.5ZM28.875 13.75H26.8125C26.2655 13.75 25.7409 13.9673 25.3541 14.3541C24.9673 14.7409 24.75 15.2655 24.75 15.8125V19.3024C24.7498 22.2058 23.5963 24.9903 21.5433 27.0433C19.4903 29.0963 16.7058 30.2498 13.8024 30.25H7.5625C7.01549 30.25 6.49089 30.4673 6.10409 30.8541C5.7173 31.2409 5.5 31.7655 5.5 32.3125V34.375H28.875V13.75Z" fill="#C1935F"/>
<path d="M22 52.25H24.75V55H22V52.25Z" fill="#F6F6F6"/>
<path d="M12.375 59.125H20.625V67.375H12.375V59.125Z" fill="#F6F6F6"/>
<path d="M28.875 63.25H26.8125C26.2655 63.25 25.7409 63.4673 25.3541 63.8541C24.9673 64.2409 24.75 64.7655 24.75 65.3125V68.8024C24.7498 71.7058 23.5963 74.4903 21.5433 76.5433C19.4903 78.5963 16.7058 79.7498 13.8024 79.75H7.5625C7.01549 79.75 6.49089 79.9673 6.10409 80.3541C5.7173 80.7409 5.5 81.2655 5.5 81.8125V83.875H28.875V63.25Z" fill="#C1935F"/>
<path d="M22 77H24.75V79.75H22V77ZM22 27.5H24.75V30.25H22V27.5Z" fill="#F6F6F6"/>
</svg>
